
 
http://www.imdb.com/title/tt1711425/


Plot: The night before his big medical school interview, a promising student celebrates his 21st birthday with his two best friends. 



Directors:
 Jon Lucas, Scott Moore 

Writers:
 Jon Lucas, Scott Moore 

Stars:
 Miles Teller, Justin Chon, Sarah Wright 

Genres:
  Comedy 

Country:
 USA 

Language:
 English 



Format                                   : AVI
Format/Info                              : Audio Video Interleave
Format profile                           : OpenDML
Format settings                          : rec
File size                                : 1.36 GiB
Duration                                 : 1h 29mn
Overall bit rate                         : 2 187 Kbps
Writing application                      : AVI-Mux GUI 1.17.8.3, Feb 16 201019:42:50

Video
ID                                       : 0
Format                                   : MPEG-4 Visual
Format profile                           : Advanced Simple@L5
Format settings, BVOP                    : 2
Format settings, QPel                    : No
Format settings, GMC                     : No warppoints
Format settings, Matrix                  : Default (H.263)
Codec ID                                 : XVID
Codec ID/Hint                            : XviD
Duration                                 : 1h 29mn
Bit rate                                 : 1 990 Kbps
Width                                    : 720 pixels
Height                                   : 400 pixels
Display aspect ratio                     : 16:9
Frame rate                               : 25.000 fps
Color space                              : YUV
Chroma subsampling                       : 4:2:0
Bit depth                                : 8 bits
Scan type                                : Progressive
Compression mode                         : Lossy
Bits/(Pixel*Frame)                       : 0.276
Stream size                              : 1.24 GiB (91%)
Writing library                          : XviD 1.2.1 (UTC 2008-12-04)

Audio
ID                                       : 1
Format                                   : AC-3
Format/Info                              : Audio Coding 3
Mode extension                           : CM (complete main)
Format settings, Endianness              : Big
Codec ID                                 : 2000
Duration                                 : 1h 29mn
Bit rate mode                            : Constant
Bit rate                                 : 192 Kbps
Channel(s)                               : 2 channels
Channel positions                        : Front: L R
Sampling rate                            : 48.0 KHz
Bit depth                                : 16 bits
Compression mode                         : Lossy
Stream size                              : 123 MiB (9%)
Alignment                                : Aligned on interleaves
Interleave, duration                     : 64 ms (1.60 video frames)
Interleave, preload duration             : 192 ms
Title                                    : Audio-Cam




    	http://www.shotpix.com/images/02995123975522438238.png
    	http://www.shotpix.com/images/61958913900471847937.png
    	http://www.shotpix.com/images/68102089780717751039.png
    	http://www.shotpix.com/images/78903885273093615061.png